<svg xmlns="http://www.w3.org/2000/svg" width="280" height="10" viewBox="0 0 280 10">
<defs><filter id="crayon" x="-5%" y="-20%" width="110%" height="140%"><feTurbulence type="fractalNoise" baseFrequency="0.9 0.4" numOctaves="4" seed="17" result="noise"/><feColorMatrix type="saturate" values="0" in="noise" result="grayNoise"/><feBlend in="SourceGraphic" in2="grayNoise" mode="multiply" result="blended"/><feComposite in="blended" in2="SourceGraphic" operator="in"/></filter></defs>
<g class="ul-light"><path d="M 0.0 1.6 L 3.7 2.7 L 7.5 2.6 L 11.2 2.4 L 14.9 2.6 L 18.7 3.2 L 22.4 3.2 L 26.1 3.6 L 29.9 3.8 L 33.6 3.7 L 37.3 4.0 L 41.1 3.4 L 44.8 3.5 L 48.5 3.3 L 52.3 2.2 L 56.0 1.9 L 59.7 2.5 L 63.5 2.0 L 67.2 2.9 L 70.9 2.4 L 74.7 3.3 L 78.4 3.4 L 82.1 1.8 L 85.9 2.1 L 89.6 2.6 L 93.3 3.0 L 97.1 1.6 L 100.8 1.9 L 104.5 1.2 L 108.3 0.8 L 112.0 1.0 L 115.7 0.1 L 119.5 1.1 L 123.2 0.1 L 126.9 0.7 L 130.7 0.0 L 134.4 1.2 L 138.1 0.6 L 141.9 1.9 L 145.6 1.6 L 149.3 1.9 L 153.1 1.2 L 156.8 2.5 L 160.5 2.5 L 164.3 3.7 L 168.0 2.2 L 171.7 2.6 L 175.5 2.7 L 179.2 2.5 L 182.9 2.7 L 186.7 3.5 L 190.4 2.3 L 194.1 2.8 L 197.9 1.9 L 201.6 3.2 L 205.3 2.1 L 209.1 2.2 L 212.8 3.1 L 216.5 3.0 L 220.3 3.2 L 224.0 3.9 L 227.7 3.1 L 231.5 3.5 L 235.2 3.4 L 238.9 3.8 L 242.7 3.6 L 246.4 3.8 L 250.1 3.5 L 253.9 1.8 L 257.6 1.4 L 261.3 1.8 L 265.1 1.9 L 268.8 1.4 L 272.5 1.3 L 276.3 1.1 L 280.0 0.7 L 280.0 6.7 L 276.3 5.6 L 272.5 6.3 L 268.8 6.0 L 265.1 7.4 L 261.3 6.8 L 257.6 7.8 L 253.9 7.6 L 250.1 8.0 L 246.4 9.5 L 242.7 8.3 L 238.9 8.6 L 235.2 8.6 L 231.5 8.9 L 227.7 8.5 L 224.0 9.9 L 220.3 8.8 L 216.5 8.4 L 212.8 9.1 L 209.1 8.9 L 205.3 8.3 L 201.6 8.6 L 197.9 8.2 L 194.1 7.7 L 190.4 7.9 L 186.7 8.7 L 182.9 8.3 L 179.2 8.5 L 175.5 9.1 L 171.7 8.6 L 168.0 8.7 L 164.3 7.9 L 160.5 7.6 L 156.8 7.9 L 153.1 7.2 L 149.3 7.8 L 145.6 6.4 L 141.9 6.6 L 138.1 5.6 L 134.4 6.6 L 130.7 6.0 L 126.9 5.8 L 123.2 6.6 L 119.5 7.2 L 115.7 6.1 L 112.0 6.7 L 108.3 6.2 L 104.5 7.8 L 100.8 7.9 L 97.1 7.6 L 93.3 7.8 L 89.6 8.6 L 85.9 8.7 L 82.1 7.7 L 78.4 8.8 L 74.7 8.7 L 70.9 8.2 L 67.2 7.8 L 63.5 8.6 L 59.7 8.1 L 56.0 7.6 L 52.3 7.4 L 48.5 7.8 L 44.8 9.4 L 41.1 9.2 L 37.3 9.2 L 33.6 8.9 L 29.9 8.9 L 26.1 8.9 L 22.4 9.9 L 18.7 9.3 L 14.9 8.8 L 11.2 8.4 L 7.5 8.6 L 3.7 8.1 L 0.0 7.5 Z" fill="#E8845A" opacity="0.82" filter="url(#crayon)"/>
<circle cx="146.1" cy="8.4" r="1.4" fill="#E8845A" opacity="0.27"/>
<circle cx="214.0" cy="7.2" r="1.0" fill="#E8845A" opacity="0.19"/>
<circle cx="8.5" cy="3.7" r="1.1" fill="#E8845A" opacity="0.25"/>
<circle cx="140.4" cy="3.0" r="1.2" fill="#E8845A" opacity="0.53"/>
<circle cx="112.6" cy="10.5" r="0.4" fill="#E8845A" opacity="0.48"/>
<circle cx="244.3" cy="1.2" r="1.1" fill="#E8845A" opacity="0.37"/>
<circle cx="266.5" cy="1.8" r="0.9" fill="#E8845A" opacity="0.5"/>
<circle cx="178.6" cy="2.9" r="0.4" fill="#E8845A" opacity="0.53"/>
<circle cx="132.8" cy="10.5" r="0.5" fill="#E8845A" opacity="0.47"/>
<circle cx="227.1" cy="9.6" r="0.3" fill="#E8845A" opacity="0.3"/>
<circle cx="15.4" cy="7.8" r="0.7" fill="#E8845A" opacity="0.53"/>
<circle cx="105.2" cy="8.0" r="1.3" fill="#E8845A" opacity="0.25"/>
<circle cx="155.8" cy="10.0" r="0.9" fill="#E8845A" opacity="0.29"/>
<circle cx="75.3" cy="8.2" r="0.5" fill="#E8845A" opacity="0.39"/>
<circle cx="155.4" cy="5.6" r="0.4" fill="#E8845A" opacity="0.41"/>
<circle cx="255.8" cy="3.0" r="0.7" fill="#E8845A" opacity="0.51"/>
<circle cx="161.8" cy="2.5" r="0.3" fill="#E8845A" opacity="0.45"/>
<circle cx="97.7" cy="4.6" r="0.6" fill="#E8845A" opacity="0.4"/>
<circle cx="203.7" cy="2.9" r="0.4" fill="#E8845A" opacity="0.54"/>
<circle cx="254.0" cy="-0.3" r="0.9" fill="#E8845A" opacity="0.42"/>
<circle cx="113.0" cy="7.5" r="1.4" fill="#E8845A" opacity="0.39"/>
<circle cx="109.9" cy="1.7" r="0.6" fill="#E8845A" opacity="0.21"/>
<circle cx="31.7" cy="1.8" r="1.2" fill="#E8845A" opacity="0.36"/>
<circle cx="224.8" cy="9.6" r="1.2" fill="#E8845A" opacity="0.17"/>
<circle cx="258.4" cy="0.5" r="1.1" fill="#E8845A" opacity="0.49"/>
<circle cx="183.8" cy="3.9" r="0.4" fill="#E8845A" opacity="0.18"/>
<circle cx="177.9" cy="2.2" r="0.9" fill="#E8845A" opacity="0.26"/>
<circle cx="46.4" cy="2.7" r="1.1" fill="#E8845A" opacity="0.34"/>
<circle cx="110.2" cy="4.9" r="0.9" fill="#E8845A" opacity="0.36"/>
<circle cx="124.7" cy="10.1" r="1.1" fill="#E8845A" opacity="0.24"/>
<circle cx="89.5" cy="1.6" r="0.7" fill="#E8845A" opacity="0.16"/>
<circle cx="208.0" cy="5.7" r="0.8" fill="#E8845A" opacity="0.51"/>
<circle cx="92.4" cy="5.9" r="1.3" fill="#E8845A" opacity="0.37"/>
<circle cx="171.4" cy="3.5" r="1.4" fill="#E8845A" opacity="0.45"/>
<circle cx="85.3" cy="3.4" r="1.0" fill="#E8845A" opacity="0.36"/>
<circle cx="146.5" cy="1.6" r="0.9" fill="#E8845A" opacity="0.43"/>
<circle cx="213.7" cy="4.4" r="0.8" fill="#E8845A" opacity="0.35"/>
<circle cx="150.1" cy="4.7" r="0.3" fill="#E8845A" opacity="0.26"/>
<circle cx="275.6" cy="8.6" r="0.8" fill="#E8845A" opacity="0.45"/>
<circle cx="59.7" cy="2.4" r="0.9" fill="#E8845A" opacity="0.43"/>
<circle cx="8.7" cy="4.7" r="1.3" fill="#E8845A" opacity="0.39"/>
<circle cx="277.1" cy="0.6" r="1.3" fill="#E8845A" opacity="0.48"/>
<circle cx="8.3" cy="5.4" r="1.1" fill="#E8845A" opacity="0.24"/>
<circle cx="181.5" cy="8.9" r="1.2" fill="#E8845A" opacity="0.32"/>
<circle cx="17.2" cy="5.4" r="0.5" fill="#E8845A" opacity="0.37"/>
<circle cx="75.9" cy="3.3" r="0.9" fill="#E8845A" opacity="0.48"/>
<circle cx="272.1" cy="4.0" r="0.3" fill="#E8845A" opacity="0.45"/>
<circle cx="95.3" cy="7.8" r="1.2" fill="#E8845A" opacity="0.16"/>
<circle cx="204.2" cy="2.6" r="0.7" fill="#E8845A" opacity="0.28"/>
<circle cx="150.7" cy="2.2" r="0.8" fill="#E8845A" opacity="0.26"/>
<circle cx="35.6" cy="2.2" r="1.0" fill="#E8845A" opacity="0.27"/>
<circle cx="56.7" cy="3.5" r="0.5" fill="#E8845A" opacity="0.54"/>
<circle cx="219.9" cy="1.2" r="0.6" fill="#E8845A" opacity="0.32"/>
<circle cx="147.8" cy="3.8" r="0.9" fill="#E8845A" opacity="0.45"/>
<circle cx="43.9" cy="5.7" r="0.5" fill="#E8845A" opacity="0.36"/>
<circle cx="89.2" cy="8.3" r="1.3" fill="#E8845A" opacity="0.53"/>
<circle cx="114.2" cy="6.3" r="0.5" fill="#E8845A" opacity="0.43"/>
<circle cx="217.3" cy="4.2" r="0.7" fill="#E8845A" opacity="0.45"/>
<circle cx="209.6" cy="8.3" r="0.6" fill="#E8845A" opacity="0.25"/>
<circle cx="70.7" cy="1.6" r="0.3" fill="#E8845A" opacity="0.2"/>
<circle cx="138.0" cy="4.2" r="1.3" fill="#E8845A" opacity="0.3"/>
<circle cx="48.4" cy="9.7" r="0.4" fill="#E8845A" opacity="0.29"/>
<circle cx="213.3" cy="3.0" r="1.4" fill="#E8845A" opacity="0.45"/>
<circle cx="86.7" cy="9.0" r="1.3" fill="#E8845A" opacity="0.36"/>
<circle cx="40.9" cy="0.6" r="1.2" fill="#E8845A" opacity="0.51"/>
<circle cx="182.8" cy="8.0" r="1.2" fill="#E8845A" opacity="0.24"/>
<circle cx="60.3" cy="9.0" r="1.2" fill="#E8845A" opacity="0.32"/>
<circle cx="76.1" cy="0.4" r="0.7" fill="#E8845A" opacity="0.51"/>
<circle cx="57.5" cy="3.0" r="0.3" fill="#E8845A" opacity="0.38"/>
<circle cx="17.7" cy="6.9" r="0.8" fill="#E8845A" opacity="0.32"/>
<circle cx="73.1" cy="2.8" r="1.3" fill="#E8845A" opacity="0.53"/>
<circle cx="210.1" cy="1.8" r="0.5" fill="#E8845A" opacity="0.3"/>
<circle cx="244.5" cy="9.9" r="0.6" fill="#E8845A" opacity="0.4"/>
<circle cx="106.6" cy="4.5" r="0.5" fill="#E8845A" opacity="0.44"/>
<circle cx="218.4" cy="9.8" r="0.8" fill="#E8845A" opacity="0.33"/>
<circle cx="180.7" cy="0.9" r="1.3" fill="#E8845A" opacity="0.46"/>
<circle cx="64.3" cy="3.9" r="0.8" fill="#E8845A" opacity="0.49"/>
<circle cx="193.6" cy="2.1" r="1.3" fill="#E8845A" opacity="0.52"/>
<circle cx="239.5" cy="4.9" r="0.8" fill="#E8845A" opacity="0.31"/>
<circle cx="272.8" cy="4.8" r="1.4" fill="#E8845A" opacity="0.22"/>
<circle cx="9.4" cy="4.7" r="0.5" fill="#E8845A" opacity="0.25"/>
<circle cx="11.0" cy="0.9" r="0.8" fill="#E8845A" opacity="0.19"/>
<circle cx="83.4" cy="6.2" r="0.6" fill="#E8845A" opacity="0.27"/>
<circle cx="106.2" cy="2.4" r="0.9" fill="#E8845A" opacity="0.46"/>
<circle cx="9.7" cy="5.4" r="0.9" fill="#E8845A" opacity="0.52"/>
<circle cx="196.7" cy="2.5" r="1.0" fill="#E8845A" opacity="0.51"/>
<circle cx="265.5" cy="7.9" r="0.4" fill="#E8845A" opacity="0.3"/>
<circle cx="134.1" cy="3.1" r="1.1" fill="#E8845A" opacity="0.35"/>
<circle cx="273.0" cy="-0.4" r="1.2" fill="#E8845A" opacity="0.2"/>
<circle cx="145.2" cy="1.1" r="0.7" fill="#E8845A" opacity="0.39"/>
<circle cx="267.5" cy="-0.1" r="0.7" fill="#E8845A" opacity="0.19"/>
<circle cx="207.6" cy="1.1" r="0.5" fill="#E8845A" opacity="0.47"/>
<circle cx="14.1" cy="9.2" r="0.6" fill="#E8845A" opacity="0.55"/>
<circle cx="30.5" cy="0.6" r="0.8" fill="#E8845A" opacity="0.27"/>
<circle cx="180.1" cy="2.8" r="0.7" fill="#E8845A" opacity="0.16"/>
<circle cx="25.6" cy="-0.5" r="0.8" fill="#E8845A" opacity="0.5"/>
<circle cx="150.2" cy="3.1" r="0.8" fill="#E8845A" opacity="0.46"/>
<circle cx="243.0" cy="0.5" r="1.0" fill="#E8845A" opacity="0.27"/>
<circle cx="259.3" cy="7.5" r="0.9" fill="#E8845A" opacity="0.42"/>
<circle cx="212.8" cy="0.3" r="0.7" fill="#E8845A" opacity="0.17"/>
<circle cx="43.9" cy="9.7" r="0.9" fill="#E8845A" opacity="0.23"/>
<circle cx="83.0" cy="4.1" r="0.4" fill="#E8845A" opacity="0.48"/>
<circle cx="106.9" cy="0.1" r="0.9" fill="#E8845A" opacity="0.32"/>
<circle cx="213.1" cy="2.4" r="0.6" fill="#E8845A" opacity="0.35"/>
<circle cx="113.5" cy="0.9" r="1.1" fill="#E8845A" opacity="0.5"/>
<circle cx="232.0" cy="6.7" r="0.8" fill="#E8845A" opacity="0.47"/>
<circle cx="59.7" cy="0.6" r="0.5" fill="#E8845A" opacity="0.36"/>
<circle cx="58.9" cy="4.3" r="1.2" fill="#E8845A" opacity="0.4"/>
<circle cx="56.3" cy="0.8" r="0.3" fill="#E8845A" opacity="0.17"/>
<circle cx="73.7" cy="7.3" r="1.2" fill="#E8845A" opacity="0.3"/>
<circle cx="13.7" cy="5.7" r="1.3" fill="#E8845A" opacity="0.16"/>
<circle cx="175.8" cy="10.5" r="0.7" fill="#E8845A" opacity="0.39"/>
<circle cx="226.5" cy="6.8" r="0.5" fill="#E8845A" opacity="0.46"/>
<circle cx="163.9" cy="6.8" r="1.0" fill="#E8845A" opacity="0.48"/>
<circle cx="159.9" cy="9.7" r="0.4" fill="#E8845A" opacity="0.16"/>
<circle cx="39.2" cy="5.1" r="1.1" fill="#E8845A" opacity="0.52"/>
<circle cx="3.0" cy="-0.4" r="0.7" fill="#E8845A" opacity="0.41"/>
<circle cx="111.9" cy="2.6" r="0.5" fill="#E8845A" opacity="0.44"/>
<circle cx="169.6" cy="10.0" r="0.7" fill="#E8845A" opacity="0.34"/>
<circle cx="268.5" cy="7.2" r="0.6" fill="#E8845A" opacity="0.44"/>
<circle cx="125.3" cy="0.5" r="0.4" fill="#E8845A" opacity="0.35"/>
<circle cx="87.6" cy="2.4" r="1.1" fill="#E8845A" opacity="0.25"/>
<circle cx="126.4" cy="5.1" r="0.3" fill="#E8845A" opacity="0.47"/>
<circle cx="75.4" cy="1.3" r="0.9" fill="#E8845A" opacity="0.24"/>
<circle cx="10.0" cy="0.8" r="0.3" fill="#E8845A" opacity="0.29"/>
<circle cx="91.8" cy="1.8" r="0.5" fill="#E8845A" opacity="0.49"/>
<circle cx="161.0" cy="6.2" r="0.3" fill="#E8845A" opacity="0.52"/>
<circle cx="10.0" cy="7.9" r="1.0" fill="#E8845A" opacity="0.31"/>
<circle cx="94.2" cy="5.5" r="0.9" fill="#E8845A" opacity="0.49"/>
<circle cx="16.8" cy="0.5" r="1.0" fill="#E8845A" opacity="0.26"/>
<circle cx="162.3" cy="3.7" r="0.3" fill="#E8845A" opacity="0.48"/>
<circle cx="52.9" cy="3.2" r="1.1" fill="#E8845A" opacity="0.52"/>
<circle cx="239.1" cy="9.7" r="0.7" fill="#E8845A" opacity="0.24"/>
<circle cx="128.5" cy="8.6" r="1.0" fill="#E8845A" opacity="0.4"/>
<circle cx="197.3" cy="1.9" r="0.9" fill="#E8845A" opacity="0.32"/>
<circle cx="245.8" cy="2.9" r="0.9" fill="#E8845A" opacity="0.4"/>
<circle cx="197.2" cy="8.2" r="1.1" fill="#E8845A" opacity="0.2"/>
<circle cx="269.4" cy="-0.1" r="1.1" fill="#E8845A" opacity="0.27"/>
<circle cx="29.0" cy="3.5" r="0.4" fill="#E8845A" opacity="0.23"/>
<circle cx="269.8" cy="8.4" r="0.7" fill="#E8845A" opacity="0.35"/>
<circle cx="167.4" cy="3.0" r="0.4" fill="#E8845A" opacity="0.33"/>
<circle cx="236.1" cy="10.1" r="1.0" fill="#E8845A" opacity="0.47"/>
<circle cx="117.4" cy="8.1" r="1.2" fill="#E8845A" opacity="0.51"/>
<circle cx="54.7" cy="5.3" r="0.4" fill="#E8845A" opacity="0.38"/>
<circle cx="132.4" cy="6.0" r="0.9" fill="#E8845A" opacity="0.29"/>
<circle cx="40.1" cy="3.0" r="1.2" fill="#E8845A" opacity="0.26"/>
<circle cx="269.4" cy="8.7" r="0.6" fill="#E8845A" opacity="0.33"/>
<circle cx="223.0" cy="-0.4" r="1.1" fill="#E8845A" opacity="0.31"/>
<circle cx="188.6" cy="-0.4" r="1.0" fill="#E8845A" opacity="0.17"/>
<circle cx="80.0" cy="6.3" r="1.0" fill="#E8845A" opacity="0.29"/>
<circle cx="72.7" cy="3.5" r="0.6" fill="#E8845A" opacity="0.24"/>
<circle cx="69.8" cy="5.0" r="1.1" fill="#E8845A" opacity="0.48"/>
<circle cx="110.5" cy="9.9" r="0.7" fill="#E8845A" opacity="0.48"/>
<circle cx="227.3" cy="7.8" r="1.3" fill="#E8845A" opacity="0.39"/>
<circle cx="245.9" cy="2.5" r="0.9" fill="#E8845A" opacity="0.38"/>
<circle cx="149.2" cy="0.2" r="0.6" fill="#E8845A" opacity="0.4"/>
<circle cx="103.1" cy="7.2" r="1.1" fill="#E8845A" opacity="0.37"/>
<circle cx="37.9" cy="4.4" r="1.3" fill="#E8845A" opacity="0.28"/>
<circle cx="26.0" cy="8.0" r="0.7" fill="#E8845A" opacity="0.23"/>
<circle cx="143.6" cy="9.6" r="0.9" fill="#E8845A" opacity="0.23"/>
<circle cx="3.4" cy="4.1" r="0.6" fill="#E8845A" opacity="0.54"/>
<circle cx="246.6" cy="10.3" r="1.3" fill="#E8845A" opacity="0.26"/>
<circle cx="177.6" cy="5.6" r="0.9" fill="#E8845A" opacity="0.37"/>
<circle cx="61.5" cy="1.2" r="0.4" fill="#E8845A" opacity="0.43"/>
<circle cx="47.4" cy="9.0" r="1.0" fill="#E8845A" opacity="0.27"/>
<circle cx="249.8" cy="0.5" r="0.5" fill="#E8845A" opacity="0.47"/>
<circle cx="104.0" cy="9.5" r="0.8" fill="#E8845A" opacity="0.15"/>
<circle cx="259.6" cy="10.4" r="0.8" fill="#E8845A" opacity="0.44"/>
<circle cx="190.8" cy="0.6" r="1.1" fill="#E8845A" opacity="0.35"/>
<circle cx="194.0" cy="-0.4" r="0.7" fill="#E8845A" opacity="0.23"/>
<circle cx="258.6" cy="-0.2" r="0.3" fill="#E8845A" opacity="0.28"/>
<circle cx="228.1" cy="1.6" r="1.1" fill="#E8845A" opacity="0.47"/>
<circle cx="166.6" cy="3.8" r="1.1" fill="#E8845A" opacity="0.2"/>
<circle cx="75.4" cy="9.0" r="0.5" fill="#E8845A" opacity="0.25"/>
<circle cx="38.9" cy="5.4" r="1.3" fill="#E8845A" opacity="0.21"/>
<circle cx="143.8" cy="9.3" r="0.4" fill="#E8845A" opacity="0.34"/>
<circle cx="84.4" cy="5.6" r="1.3" fill="#E8845A" opacity="0.52"/>
<circle cx="93.3" cy="1.7" r="0.9" fill="#E8845A" opacity="0.53"/>
<circle cx="68.2" cy="2.5" r="0.7" fill="#E8845A" opacity="0.53"/>
<circle cx="83.6" cy="1.6" r="0.7" fill="#E8845A" opacity="0.37"/>
<circle cx="62.9" cy="8.0" r="0.5" fill="#E8845A" opacity="0.36"/>
<circle cx="100.4" cy="9.2" r="1.4" fill="#E8845A" opacity="0.34"/>
<circle cx="112.1" cy="4.0" r="1.0" fill="#E8845A" opacity="0.21"/>
<circle cx="11.8" cy="2.4" r="0.9" fill="#E8845A" opacity="0.29"/>
<circle cx="46.3" cy="5.6" r="1.4" fill="#E8845A" opacity="0.53"/>
<circle cx="69.5" cy="1.6" r="1.1" fill="#E8845A" opacity="0.49"/>
<circle cx="35.2" cy="5.2" r="0.6" fill="#E8845A" opacity="0.54"/>
<circle cx="264.2" cy="2.2" r="1.4" fill="#E8845A" opacity="0.21"/>
<circle cx="70.7" cy="9.8" r="0.7" fill="#E8845A" opacity="0.53"/>
<circle cx="161.7" cy="6.4" r="1.3" fill="#E8845A" opacity="0.44"/>
<circle cx="91.1" cy="4.1" r="0.7" fill="#E8845A" opacity="0.25"/>
<circle cx="90.6" cy="7.2" r="0.8" fill="#E8845A" opacity="0.17"/>
<circle cx="227.0" cy="6.8" r="1.3" fill="#E8845A" opacity="0.38"/>
<circle cx="95.9" cy="8.3" r="1.1" fill="#E8845A" opacity="0.38"/>
<circle cx="168.5" cy="3.6" r="0.6" fill="#E8845A" opacity="0.16"/>
<circle cx="121.9" cy="5.1" r="0.5" fill="#E8845A" opacity="0.52"/>
<circle cx="255.2" cy="3.1" r="0.4" fill="#E8845A" opacity="0.18"/>
<circle cx="176.5" cy="7.9" r="0.8" fill="#E8845A" opacity="0.46"/>
<circle cx="69.9" cy="3.1" r="0.5" fill="#E8845A" opacity="0.16"/>
<circle cx="3.0" cy="9.3" r="0.5" fill="#E8845A" opacity="0.19"/>
<circle cx="181.2" cy="3.1" r="0.9" fill="#E8845A" opacity="0.16"/>
<circle cx="17.3" cy="4.8" r="1.3" fill="#E8845A" opacity="0.22"/>
<circle cx="40.9" cy="8.0" r="1.1" fill="#E8845A" opacity="0.36"/>
<circle cx="203.4" cy="3.2" r="0.6" fill="#E8845A" opacity="0.28"/>
<circle cx="78.6" cy="5.8" r="1.1" fill="#E8845A" opacity="0.47"/>
<circle cx="185.1" cy="1.6" r="1.1" fill="#E8845A" opacity="0.25"/>
<circle cx="38.7" cy="4.2" r="1.4" fill="#E8845A" opacity="0.31"/>
<circle cx="189.7" cy="8.1" r="1.0" fill="#E8845A" opacity="0.22"/>
<circle cx="182.7" cy="7.0" r="0.6" fill="#E8845A" opacity="0.2"/>
<circle cx="17.0" cy="7.2" r="1.3" fill="#E8845A" opacity="0.16"/>
<circle cx="115.0" cy="8.2" r="1.2" fill="#E8845A" opacity="0.46"/>
<circle cx="45.1" cy="3.4" r="0.4" fill="#E8845A" opacity="0.3"/>
<circle cx="208.0" cy="2.4" r="1.4" fill="#E8845A" opacity="0.25"/>
<circle cx="137.9" cy="5.5" r="0.9" fill="#E8845A" opacity="0.44"/>
<circle cx="142.3" cy="8.4" r="0.9" fill="#E8845A" opacity="0.53"/>
<circle cx="234.5" cy="9.3" r="1.3" fill="#E8845A" opacity="0.41"/>
<circle cx="118.5" cy="1.5" r="0.6" fill="#E8845A" opacity="0.35"/>
<circle cx="212.1" cy="4.8" r="0.4" fill="#E8845A" opacity="0.26"/>
<circle cx="152.6" cy="1.4" r="1.3" fill="#E8845A" opacity="0.27"/>
<circle cx="32.4" cy="9.6" r="0.8" fill="#E8845A" opacity="0.23"/>
<circle cx="26.8" cy="5.3" r="1.3" fill="#E8845A" opacity="0.28"/>
<circle cx="101.7" cy="9.0" r="1.0" fill="#E8845A" opacity="0.46"/>
<circle cx="1.6" cy="9.0" r="1.4" fill="#E8845A" opacity="0.3"/>
<circle cx="226.1" cy="0.9" r="0.6" fill="#E8845A" opacity="0.52"/>
<circle cx="62.7" cy="3.7" r="0.6" fill="#E8845A" opacity="0.21"/>
<circle cx="252.3" cy="0.4" r="1.3" fill="#E8845A" opacity="0.29"/>
<circle cx="185.1" cy="3.2" r="0.6" fill="#E8845A" opacity="0.39"/>
<circle cx="259.9" cy="6.5" r="0.5" fill="#E8845A" opacity="0.4"/>
<circle cx="189.4" cy="10.3" r="0.7" fill="#E8845A" opacity="0.51"/>
<circle cx="129.2" cy="10.4" r="0.9" fill="#E8845A" opacity="0.26"/></g>
<g class="ul-dark" display="none"><path d="M 0.0 1.6 L 3.7 2.7 L 7.5 2.6 L 11.2 2.4 L 14.9 2.6 L 18.7 3.2 L 22.4 3.2 L 26.1 3.6 L 29.9 3.8 L 33.6 3.7 L 37.3 4.0 L 41.1 3.4 L 44.8 3.5 L 48.5 3.3 L 52.3 2.2 L 56.0 1.9 L 59.7 2.5 L 63.5 2.0 L 67.2 2.9 L 70.9 2.4 L 74.7 3.3 L 78.4 3.4 L 82.1 1.8 L 85.9 2.1 L 89.6 2.6 L 93.3 3.0 L 97.1 1.6 L 100.8 1.9 L 104.5 1.2 L 108.3 0.8 L 112.0 1.0 L 115.7 0.1 L 119.5 1.1 L 123.2 0.1 L 126.9 0.7 L 130.7 0.0 L 134.4 1.2 L 138.1 0.6 L 141.9 1.9 L 145.6 1.6 L 149.3 1.9 L 153.1 1.2 L 156.8 2.5 L 160.5 2.5 L 164.3 3.7 L 168.0 2.2 L 171.7 2.6 L 175.5 2.7 L 179.2 2.5 L 182.9 2.7 L 186.7 3.5 L 190.4 2.3 L 194.1 2.8 L 197.9 1.9 L 201.6 3.2 L 205.3 2.1 L 209.1 2.2 L 212.8 3.1 L 216.5 3.0 L 220.3 3.2 L 224.0 3.9 L 227.7 3.1 L 231.5 3.5 L 235.2 3.4 L 238.9 3.8 L 242.7 3.6 L 246.4 3.8 L 250.1 3.5 L 253.9 1.8 L 257.6 1.4 L 261.3 1.8 L 265.1 1.9 L 268.8 1.4 L 272.5 1.3 L 276.3 1.1 L 280.0 0.7 L 280.0 6.7 L 276.3 5.6 L 272.5 6.3 L 268.8 6.0 L 265.1 7.4 L 261.3 6.8 L 257.6 7.8 L 253.9 7.6 L 250.1 8.0 L 246.4 9.5 L 242.7 8.3 L 238.9 8.6 L 235.2 8.6 L 231.5 8.9 L 227.7 8.5 L 224.0 9.9 L 220.3 8.8 L 216.5 8.4 L 212.8 9.1 L 209.1 8.9 L 205.3 8.3 L 201.6 8.6 L 197.9 8.2 L 194.1 7.7 L 190.4 7.9 L 186.7 8.7 L 182.9 8.3 L 179.2 8.5 L 175.5 9.1 L 171.7 8.6 L 168.0 8.7 L 164.3 7.9 L 160.5 7.6 L 156.8 7.9 L 153.1 7.2 L 149.3 7.8 L 145.6 6.4 L 141.9 6.6 L 138.1 5.6 L 134.4 6.6 L 130.7 6.0 L 126.9 5.8 L 123.2 6.6 L 119.5 7.2 L 115.7 6.1 L 112.0 6.7 L 108.3 6.2 L 104.5 7.8 L 100.8 7.9 L 97.1 7.6 L 93.3 7.8 L 89.6 8.6 L 85.9 8.7 L 82.1 7.7 L 78.4 8.8 L 74.7 8.7 L 70.9 8.2 L 67.2 7.8 L 63.5 8.6 L 59.7 8.1 L 56.0 7.6 L 52.3 7.4 L 48.5 7.8 L 44.8 9.4 L 41.1 9.2 L 37.3 9.2 L 33.6 8.9 L 29.9 8.9 L 26.1 8.9 L 22.4 9.9 L 18.7 9.3 L 14.9 8.8 L 11.2 8.4 L 7.5 8.6 L 3.7 8.1 L 0.0 7.5 Z" fill="#F0A87C" opacity="0.82" filter="url(#crayon)"/>
<circle cx="200.1" cy="9.6" r="0.5" fill="#F0A87C" opacity="0.3"/>
<circle cx="133.4" cy="9.6" r="1.3" fill="#F0A87C" opacity="0.25"/>
<circle cx="180.2" cy="6.7" r="0.9" fill="#F0A87C" opacity="0.17"/>
<circle cx="117.7" cy="9.5" r="0.6" fill="#F0A87C" opacity="0.53"/>
<circle cx="214.3" cy="3.9" r="0.6" fill="#F0A87C" opacity="0.23"/>
<circle cx="243.4" cy="6.3" r="1.2" fill="#F0A87C" opacity="0.32"/>
<circle cx="178.8" cy="3.1" r="0.5" fill="#F0A87C" opacity="0.33"/>
<circle cx="57.4" cy="4.7" r="0.7" fill="#F0A87C" opacity="0.22"/>
<circle cx="86.1" cy="9.3" r="1.3" fill="#F0A87C" opacity="0.5"/>
<circle cx="61.8" cy="4.6" r="1.0" fill="#F0A87C" opacity="0.22"/>
<circle cx="109.4" cy="7.9" r="1.4" fill="#F0A87C" opacity="0.21"/>
<circle cx="141.6" cy="5.0" r="0.8" fill="#F0A87C" opacity="0.5"/>
<circle cx="5.2" cy="8.5" r="1.2" fill="#F0A87C" opacity="0.3"/>
<circle cx="210.5" cy="8.0" r="0.8" fill="#F0A87C" opacity="0.2"/>
<circle cx="64.1" cy="9.8" r="0.7" fill="#F0A87C" opacity="0.46"/>
<circle cx="24.5" cy="8.3" r="0.6" fill="#F0A87C" opacity="0.42"/>
<circle cx="81.5" cy="7.6" r="1.1" fill="#F0A87C" opacity="0.54"/>
<circle cx="57.1" cy="4.1" r="1.3" fill="#F0A87C" opacity="0.4"/>
<circle cx="28.9" cy="0.6" r="1.0" fill="#F0A87C" opacity="0.2"/>
<circle cx="21.8" cy="4.5" r="0.6" fill="#F0A87C" opacity="0.34"/>
<circle cx="135.4" cy="6.8" r="0.5" fill="#F0A87C" opacity="0.52"/>
<circle cx="23.2" cy="8.3" r="0.8" fill="#F0A87C" opacity="0.34"/>
<circle cx="162.6" cy="3.9" r="0.8" fill="#F0A87C" opacity="0.54"/>
<circle cx="167.0" cy="5.6" r="0.6" fill="#F0A87C" opacity="0.53"/>
<circle cx="185.7" cy="2.9" r="1.4" fill="#F0A87C" opacity="0.26"/>
<circle cx="264.3" cy="9.9" r="1.2" fill="#F0A87C" opacity="0.26"/>
<circle cx="264.6" cy="5.0" r="0.3" fill="#F0A87C" opacity="0.34"/>
<circle cx="150.3" cy="4.0" r="0.3" fill="#F0A87C" opacity="0.21"/>
<circle cx="63.3" cy="3.2" r="0.6" fill="#F0A87C" opacity="0.39"/>
<circle cx="221.3" cy="6.0" r="0.9" fill="#F0A87C" opacity="0.24"/>
<circle cx="121.3" cy="3.0" r="0.7" fill="#F0A87C" opacity="0.26"/>
<circle cx="271.9" cy="5.4" r="0.8" fill="#F0A87C" opacity="0.52"/>
<circle cx="166.2" cy="8.9" r="1.2" fill="#F0A87C" opacity="0.54"/>
<circle cx="76.5" cy="6.9" r="1.3" fill="#F0A87C" opacity="0.31"/>
<circle cx="249.0" cy="0.3" r="0.4" fill="#F0A87C" opacity="0.23"/>
<circle cx="93.8" cy="2.1" r="0.6" fill="#F0A87C" opacity="0.36"/>
<circle cx="165.1" cy="2.9" r="1.3" fill="#F0A87C" opacity="0.55"/>
<circle cx="271.7" cy="7.5" r="1.4" fill="#F0A87C" opacity="0.45"/>
<circle cx="260.0" cy="4.9" r="1.4" fill="#F0A87C" opacity="0.16"/>
<circle cx="199.5" cy="7.1" r="0.4" fill="#F0A87C" opacity="0.48"/>
<circle cx="103.8" cy="9.5" r="1.4" fill="#F0A87C" opacity="0.33"/>
<circle cx="275.4" cy="1.3" r="0.5" fill="#F0A87C" opacity="0.5"/>
<circle cx="213.8" cy="2.8" r="0.8" fill="#F0A87C" opacity="0.32"/>
<circle cx="201.7" cy="-0.1" r="0.9" fill="#F0A87C" opacity="0.42"/>
<circle cx="202.9" cy="0.2" r="0.6" fill="#F0A87C" opacity="0.24"/>
<circle cx="121.6" cy="6.9" r="0.9" fill="#F0A87C" opacity="0.3"/>
<circle cx="118.1" cy="8.7" r="1.4" fill="#F0A87C" opacity="0.45"/>
<circle cx="81.8" cy="0.1" r="1.0" fill="#F0A87C" opacity="0.16"/>
<circle cx="65.2" cy="0.7" r="0.6" fill="#F0A87C" opacity="0.16"/>
<circle cx="18.0" cy="10.0" r="1.3" fill="#F0A87C" opacity="0.16"/>
<circle cx="241.4" cy="8.3" r="1.3" fill="#F0A87C" opacity="0.47"/>
<circle cx="80.9" cy="7.5" r="0.4" fill="#F0A87C" opacity="0.38"/>
<circle cx="227.0" cy="0.3" r="0.5" fill="#F0A87C" opacity="0.52"/>
<circle cx="125.3" cy="1.6" r="0.7" fill="#F0A87C" opacity="0.29"/>
<circle cx="5.4" cy="8.6" r="0.8" fill="#F0A87C" opacity="0.39"/>
<circle cx="185.8" cy="9.9" r="1.2" fill="#F0A87C" opacity="0.37"/>
<circle cx="103.8" cy="6.3" r="0.5" fill="#F0A87C" opacity="0.21"/>
<circle cx="198.5" cy="10.0" r="1.3" fill="#F0A87C" opacity="0.19"/>
<circle cx="202.2" cy="7.3" r="1.1" fill="#F0A87C" opacity="0.31"/>
<circle cx="134.5" cy="8.2" r="0.5" fill="#F0A87C" opacity="0.29"/>
<circle cx="29.0" cy="6.4" r="0.6" fill="#F0A87C" opacity="0.45"/>
<circle cx="10.6" cy="9.4" r="0.8" fill="#F0A87C" opacity="0.32"/>
<circle cx="22.1" cy="2.7" r="1.1" fill="#F0A87C" opacity="0.31"/>
<circle cx="49.1" cy="0.7" r="0.9" fill="#F0A87C" opacity="0.16"/>
<circle cx="157.7" cy="4.6" r="0.9" fill="#F0A87C" opacity="0.19"/>
<circle cx="232.6" cy="1.1" r="1.1" fill="#F0A87C" opacity="0.43"/>
<circle cx="239.8" cy="6.1" r="1.0" fill="#F0A87C" opacity="0.4"/>
<circle cx="95.8" cy="2.2" r="0.6" fill="#F0A87C" opacity="0.49"/>
<circle cx="148.8" cy="4.7" r="1.4" fill="#F0A87C" opacity="0.46"/>
<circle cx="187.4" cy="6.9" r="0.5" fill="#F0A87C" opacity="0.37"/>
<circle cx="57.7" cy="8.1" r="0.9" fill="#F0A87C" opacity="0.25"/>
<circle cx="108.9" cy="10.3" r="1.3" fill="#F0A87C" opacity="0.35"/>
<circle cx="76.7" cy="2.0" r="0.9" fill="#F0A87C" opacity="0.19"/>
<circle cx="155.4" cy="5.1" r="0.8" fill="#F0A87C" opacity="0.47"/>
<circle cx="105.8" cy="8.4" r="0.6" fill="#F0A87C" opacity="0.46"/>
<circle cx="130.0" cy="4.3" r="0.7" fill="#F0A87C" opacity="0.22"/>
<circle cx="96.6" cy="-0.3" r="0.7" fill="#F0A87C" opacity="0.38"/>
<circle cx="48.4" cy="3.4" r="0.6" fill="#F0A87C" opacity="0.21"/>
<circle cx="278.2" cy="10.2" r="1.1" fill="#F0A87C" opacity="0.27"/>
<circle cx="269.6" cy="1.8" r="0.7" fill="#F0A87C" opacity="0.16"/>
<circle cx="276.2" cy="1.2" r="1.3" fill="#F0A87C" opacity="0.47"/>
<circle cx="212.3" cy="9.3" r="1.4" fill="#F0A87C" opacity="0.35"/>
<circle cx="194.5" cy="4.9" r="0.7" fill="#F0A87C" opacity="0.3"/>
<circle cx="240.9" cy="8.8" r="0.6" fill="#F0A87C" opacity="0.32"/>
<circle cx="144.2" cy="3.9" r="0.5" fill="#F0A87C" opacity="0.38"/>
<circle cx="3.9" cy="10.5" r="0.6" fill="#F0A87C" opacity="0.42"/>
<circle cx="136.1" cy="7.5" r="1.2" fill="#F0A87C" opacity="0.18"/>
<circle cx="40.3" cy="9.9" r="1.3" fill="#F0A87C" opacity="0.26"/>
<circle cx="178.1" cy="1.5" r="0.8" fill="#F0A87C" opacity="0.35"/>
<circle cx="203.7" cy="3.8" r="0.9" fill="#F0A87C" opacity="0.29"/>
<circle cx="83.4" cy="0.2" r="0.7" fill="#F0A87C" opacity="0.45"/>
<circle cx="261.0" cy="3.5" r="1.2" fill="#F0A87C" opacity="0.2"/>
<circle cx="182.4" cy="8.7" r="1.2" fill="#F0A87C" opacity="0.53"/>
<circle cx="252.4" cy="8.7" r="0.5" fill="#F0A87C" opacity="0.42"/>
<circle cx="217.3" cy="7.6" r="1.1" fill="#F0A87C" opacity="0.51"/>
<circle cx="54.5" cy="10.1" r="1.3" fill="#F0A87C" opacity="0.29"/>
<circle cx="95.6" cy="6.4" r="0.9" fill="#F0A87C" opacity="0.16"/>
<circle cx="234.1" cy="3.5" r="1.0" fill="#F0A87C" opacity="0.45"/>
<circle cx="273.0" cy="3.7" r="1.0" fill="#F0A87C" opacity="0.52"/>
<circle cx="195.2" cy="2.8" r="0.6" fill="#F0A87C" opacity="0.4"/>
<circle cx="179.2" cy="4.0" r="1.1" fill="#F0A87C" opacity="0.18"/>
<circle cx="160.3" cy="9.6" r="0.8" fill="#F0A87C" opacity="0.26"/>
<circle cx="206.2" cy="5.4" r="0.5" fill="#F0A87C" opacity="0.26"/>
<circle cx="78.4" cy="1.2" r="0.5" fill="#F0A87C" opacity="0.28"/>
<circle cx="270.9" cy="4.9" r="0.3" fill="#F0A87C" opacity="0.39"/>
<circle cx="197.6" cy="5.5" r="0.8" fill="#F0A87C" opacity="0.16"/>
<circle cx="207.6" cy="2.7" r="1.1" fill="#F0A87C" opacity="0.43"/>
<circle cx="181.2" cy="5.9" r="1.1" fill="#F0A87C" opacity="0.18"/>
<circle cx="127.8" cy="10.0" r="0.5" fill="#F0A87C" opacity="0.45"/>
<circle cx="11.3" cy="0.7" r="0.3" fill="#F0A87C" opacity="0.51"/>
<circle cx="183.1" cy="9.0" r="0.8" fill="#F0A87C" opacity="0.34"/>
<circle cx="278.0" cy="6.2" r="0.8" fill="#F0A87C" opacity="0.29"/>
<circle cx="21.8" cy="5.4" r="0.4" fill="#F0A87C" opacity="0.35"/>
<circle cx="137.7" cy="5.6" r="1.1" fill="#F0A87C" opacity="0.22"/>
<circle cx="26.6" cy="3.2" r="1.2" fill="#F0A87C" opacity="0.32"/>
<circle cx="200.2" cy="2.2" r="1.2" fill="#F0A87C" opacity="0.36"/>
<circle cx="188.8" cy="5.9" r="0.5" fill="#F0A87C" opacity="0.25"/>
<circle cx="50.0" cy="6.4" r="0.4" fill="#F0A87C" opacity="0.33"/>
<circle cx="253.6" cy="7.9" r="0.4" fill="#F0A87C" opacity="0.33"/>
<circle cx="241.2" cy="10.1" r="1.4" fill="#F0A87C" opacity="0.26"/>
<circle cx="162.9" cy="9.3" r="0.4" fill="#F0A87C" opacity="0.29"/>
<circle cx="181.7" cy="6.5" r="0.8" fill="#F0A87C" opacity="0.36"/>
<circle cx="5.0" cy="0.1" r="0.5" fill="#F0A87C" opacity="0.17"/>
<circle cx="120.4" cy="9.5" r="1.3" fill="#F0A87C" opacity="0.23"/>
<circle cx="78.6" cy="5.7" r="1.1" fill="#F0A87C" opacity="0.32"/>
<circle cx="46.5" cy="5.7" r="1.2" fill="#F0A87C" opacity="0.25"/>
<circle cx="224.6" cy="4.3" r="1.4" fill="#F0A87C" opacity="0.22"/>
<circle cx="109.0" cy="1.9" r="0.4" fill="#F0A87C" opacity="0.4"/>
<circle cx="117.6" cy="9.6" r="1.2" fill="#F0A87C" opacity="0.15"/>
<circle cx="131.1" cy="7.6" r="0.4" fill="#F0A87C" opacity="0.43"/>
<circle cx="73.8" cy="7.3" r="0.9" fill="#F0A87C" opacity="0.15"/>
<circle cx="202.1" cy="0.9" r="1.3" fill="#F0A87C" opacity="0.42"/>
<circle cx="13.2" cy="-0.2" r="0.6" fill="#F0A87C" opacity="0.4"/>
<circle cx="68.0" cy="7.7" r="0.3" fill="#F0A87C" opacity="0.28"/>
<circle cx="36.3" cy="7.3" r="1.2" fill="#F0A87C" opacity="0.25"/>
<circle cx="128.6" cy="7.3" r="1.2" fill="#F0A87C" opacity="0.22"/>
<circle cx="55.3" cy="4.8" r="0.3" fill="#F0A87C" opacity="0.47"/>
<circle cx="48.7" cy="7.0" r="0.8" fill="#F0A87C" opacity="0.44"/>
<circle cx="86.9" cy="5.0" r="0.3" fill="#F0A87C" opacity="0.51"/>
<circle cx="195.5" cy="0.3" r="0.8" fill="#F0A87C" opacity="0.33"/>
<circle cx="152.9" cy="3.7" r="0.6" fill="#F0A87C" opacity="0.26"/>
<circle cx="227.2" cy="7.1" r="1.2" fill="#F0A87C" opacity="0.35"/>
<circle cx="265.8" cy="5.3" r="1.2" fill="#F0A87C" opacity="0.38"/>
<circle cx="161.4" cy="6.6" r="1.2" fill="#F0A87C" opacity="0.34"/>
<circle cx="10.8" cy="8.8" r="0.4" fill="#F0A87C" opacity="0.28"/>
<circle cx="109.2" cy="6.3" r="0.5" fill="#F0A87C" opacity="0.39"/>
<circle cx="203.5" cy="9.4" r="0.7" fill="#F0A87C" opacity="0.34"/>
<circle cx="225.9" cy="4.0" r="0.7" fill="#F0A87C" opacity="0.19"/>
<circle cx="219.0" cy="0.6" r="0.8" fill="#F0A87C" opacity="0.2"/>
<circle cx="185.5" cy="2.3" r="1.0" fill="#F0A87C" opacity="0.19"/>
<circle cx="258.7" cy="2.8" r="1.1" fill="#F0A87C" opacity="0.53"/>
<circle cx="112.6" cy="9.6" r="1.3" fill="#F0A87C" opacity="0.36"/>
<circle cx="183.8" cy="8.0" r="1.3" fill="#F0A87C" opacity="0.32"/>
<circle cx="53.0" cy="3.1" r="0.9" fill="#F0A87C" opacity="0.48"/>
<circle cx="10.4" cy="2.4" r="1.4" fill="#F0A87C" opacity="0.45"/>
<circle cx="85.9" cy="3.3" r="0.5" fill="#F0A87C" opacity="0.42"/>
<circle cx="258.3" cy="9.9" r="0.6" fill="#F0A87C" opacity="0.24"/>
<circle cx="61.5" cy="8.6" r="0.6" fill="#F0A87C" opacity="0.3"/>
<circle cx="26.7" cy="8.8" r="1.3" fill="#F0A87C" opacity="0.41"/>
<circle cx="84.1" cy="7.2" r="1.1" fill="#F0A87C" opacity="0.48"/>
<circle cx="65.4" cy="6.5" r="1.0" fill="#F0A87C" opacity="0.3"/>
<circle cx="119.4" cy="2.6" r="0.6" fill="#F0A87C" opacity="0.52"/>
<circle cx="14.7" cy="9.9" r="0.5" fill="#F0A87C" opacity="0.47"/>
<circle cx="38.3" cy="3.1" r="0.4" fill="#F0A87C" opacity="0.51"/>
<circle cx="13.2" cy="10.1" r="0.5" fill="#F0A87C" opacity="0.19"/>
<circle cx="27.7" cy="7.1" r="0.3" fill="#F0A87C" opacity="0.38"/>
<circle cx="174.0" cy="10.2" r="1.0" fill="#F0A87C" opacity="0.42"/>
<circle cx="49.0" cy="6.4" r="0.9" fill="#F0A87C" opacity="0.34"/>
<circle cx="66.9" cy="3.8" r="0.4" fill="#F0A87C" opacity="0.52"/>
<circle cx="201.5" cy="0.1" r="1.3" fill="#F0A87C" opacity="0.36"/>
<circle cx="216.3" cy="1.6" r="0.5" fill="#F0A87C" opacity="0.17"/>
<circle cx="180.3" cy="7.2" r="0.5" fill="#F0A87C" opacity="0.25"/>
<circle cx="149.8" cy="3.7" r="0.9" fill="#F0A87C" opacity="0.52"/>
<circle cx="21.0" cy="0.2" r="1.1" fill="#F0A87C" opacity="0.38"/>
<circle cx="50.0" cy="4.9" r="1.0" fill="#F0A87C" opacity="0.29"/>
<circle cx="107.8" cy="9.9" r="0.4" fill="#F0A87C" opacity="0.28"/>
<circle cx="226.0" cy="0.7" r="1.2" fill="#F0A87C" opacity="0.47"/>
<circle cx="50.6" cy="1.1" r="1.1" fill="#F0A87C" opacity="0.17"/>
<circle cx="238.9" cy="8.2" r="1.1" fill="#F0A87C" opacity="0.18"/>
<circle cx="226.1" cy="2.1" r="1.3" fill="#F0A87C" opacity="0.46"/>
<circle cx="18.1" cy="4.6" r="1.3" fill="#F0A87C" opacity="0.2"/>
<circle cx="104.6" cy="6.6" r="1.3" fill="#F0A87C" opacity="0.49"/>
<circle cx="58.7" cy="2.8" r="0.7" fill="#F0A87C" opacity="0.24"/>
<circle cx="205.8" cy="8.1" r="0.9" fill="#F0A87C" opacity="0.26"/>
<circle cx="28.8" cy="5.4" r="0.9" fill="#F0A87C" opacity="0.27"/>
<circle cx="98.5" cy="6.0" r="1.0" fill="#F0A87C" opacity="0.19"/>
<circle cx="20.7" cy="3.7" r="1.2" fill="#F0A87C" opacity="0.4"/>
<circle cx="203.3" cy="9.1" r="0.6" fill="#F0A87C" opacity="0.55"/>
<circle cx="186.4" cy="5.2" r="1.1" fill="#F0A87C" opacity="0.39"/>
<circle cx="245.6" cy="-0.5" r="0.7" fill="#F0A87C" opacity="0.32"/>
<circle cx="232.5" cy="6.5" r="1.1" fill="#F0A87C" opacity="0.27"/>
<circle cx="57.7" cy="10.1" r="0.3" fill="#F0A87C" opacity="0.34"/>
<circle cx="243.4" cy="1.6" r="0.3" fill="#F0A87C" opacity="0.17"/>
<circle cx="28.7" cy="3.2" r="0.4" fill="#F0A87C" opacity="0.36"/>
<circle cx="46.0" cy="1.5" r="0.4" fill="#F0A87C" opacity="0.36"/>
<circle cx="228.1" cy="8.7" r="0.3" fill="#F0A87C" opacity="0.19"/>
<circle cx="51.5" cy="3.9" r="0.4" fill="#F0A87C" opacity="0.18"/>
<circle cx="262.0" cy="5.6" r="0.9" fill="#F0A87C" opacity="0.25"/>
<circle cx="17.0" cy="7.5" r="1.0" fill="#F0A87C" opacity="0.44"/>
<circle cx="209.3" cy="2.6" r="1.3" fill="#F0A87C" opacity="0.52"/>
<circle cx="139.9" cy="4.2" r="1.0" fill="#F0A87C" opacity="0.39"/>
<circle cx="182.3" cy="2.1" r="0.5" fill="#F0A87C" opacity="0.43"/>
<circle cx="147.3" cy="8.5" r="1.1" fill="#F0A87C" opacity="0.45"/>
<circle cx="137.5" cy="2.6" r="1.4" fill="#F0A87C" opacity="0.54"/>
<circle cx="228.2" cy="7.7" r="1.2" fill="#F0A87C" opacity="0.27"/>
<circle cx="117.3" cy="5.9" r="0.7" fill="#F0A87C" opacity="0.34"/>
<circle cx="254.3" cy="6.9" r="1.3" fill="#F0A87C" opacity="0.49"/>
<circle cx="144.2" cy="3.6" r="1.2" fill="#F0A87C" opacity="0.51"/>
<circle cx="257.9" cy="7.0" r="1.3" fill="#F0A87C" opacity="0.31"/>
<circle cx="252.4" cy="5.8" r="1.1" fill="#F0A87C" opacity="0.25"/>
<circle cx="116.9" cy="3.4" r="0.9" fill="#F0A87C" opacity="0.33"/>
<circle cx="3.0" cy="1.6" r="1.2" fill="#F0A87C" opacity="0.26"/>
<circle cx="150.7" cy="1.6" r="1.2" fill="#F0A87C" opacity="0.27"/>
<circle cx="221.0" cy="2.2" r="1.0" fill="#F0A87C" opacity="0.3"/>
<circle cx="179.3" cy="10.2" r="1.0" fill="#F0A87C" opacity="0.53"/>
<circle cx="236.7" cy="2.8" r="0.8" fill="#F0A87C" opacity="0.53"/>
<circle cx="198.3" cy="3.5" r="0.5" fill="#F0A87C" opacity="0.42"/>
<circle cx="267.4" cy="8.5" r="1.2" fill="#F0A87C" opacity="0.22"/>
<circle cx="269.4" cy="8.6" r="0.5" fill="#F0A87C" opacity="0.45"/>
<circle cx="70.5" cy="6.3" r="0.8" fill="#F0A87C" opacity="0.25"/>
<circle cx="164.6" cy="1.0" r="1.3" fill="#F0A87C" opacity="0.26"/>
<circle cx="277.1" cy="4.1" r="0.8" fill="#F0A87C" opacity="0.26"/>
<circle cx="220.0" cy="7.0" r="0.9" fill="#F0A87C" opacity="0.39"/>
<circle cx="151.2" cy="0.6" r="1.4" fill="#F0A87C" opacity="0.26"/>
<circle cx="90.0" cy="0.9" r="1.3" fill="#F0A87C" opacity="0.42"/>
<circle cx="218.3" cy="2.4" r="0.9" fill="#F0A87C" opacity="0.22"/>
<circle cx="32.3" cy="0.4" r="0.3" fill="#F0A87C" opacity="0.43"/>
<circle cx="76.5" cy="5.6" r="1.0" fill="#F0A87C" opacity="0.35"/>
<circle cx="123.8" cy="4.2" r="0.4" fill="#F0A87C" opacity="0.37"/>
<circle cx="80.4" cy="3.0" r="1.0" fill="#F0A87C" opacity="0.16"/></g>
<script>
(function(){function u(){var d=document.documentElement.getAttribute("data-bs-theme")==="dark";document.querySelector(".ul-light").setAttribute("display",d?"none":"");document.querySelector(".ul-dark").setAttribute("display",d?"":"none");}u();new MutationObserver(u).observe(document.documentElement,{attributes:true,attributeFilter:["data-bs-theme"]});})();
</script>
</svg>